<svg style="fill: #357edd;" height="512" viewBox="0 0 64 64" width="512" xmlns="http://www.w3.org/2000/svg"><g id="Clipboard-Management-Project-Setting-List"><path d="m45 14a3 3 0 0 0 -3-3h-3a1 1 0 0 1 -1-1v-3a3 3 0 0 0 -6 0v3a1 1 0 0 1 -1 1h-3a3 3 0 0 0 -3 3v1h20zm-9-6h-2v-2h2z"/><path d="m25.286 40.315-1.6-1.6-1.986 1.491a1 1 0 0 1 -1.111.06 8.892 8.892 0 0 0 -2.356-.975 1 1 0 0 1 -.743-.828l-.357-2.463h-2.266l-.352 2.463a1 1 0 0 1 -.743.828 8.892 8.892 0 0 0 -2.356.975 1 1 0 0 1 -1.111-.06l-1.99-1.492-1.6 1.6 1.492 1.99a1 1 0 0 1 .06 1.111 8.892 8.892 0 0 0 -.975 2.356 1 1 0 0 1 -.828.743l-2.464.353v2.266l2.463.352a1 1 0 0 1 .828.743 8.892 8.892 0 0 0 .975 2.356 1 1 0 0 1 -.06 1.111l-1.492 1.99 1.6 1.6 1.99-1.492a1 1 0 0 1 1.111-.06 8.892 8.892 0 0 0 2.356.975 1 1 0 0 1 .743.828l.353 2.464h2.266l.352-2.463a1 1 0 0 1 .743-.828 8.892 8.892 0 0 0 2.356-.975 1 1 0 0 1 1.111.06l1.99 1.492 1.6-1.6-1.491-1.986a1 1 0 0 1 -.06-1.111 8.892 8.892 0 0 0 .975-2.356 1 1 0 0 1 .828-.743l2.463-.357v-2.266l-2.463-.352a1 1 0 0 1 -.828-.743 8.892 8.892 0 0 0 -.975-2.356 1 1 0 0 1 .06-1.111zm-17.286 8.685h-2v-2h2zm16-2h2v2h-2zm-9-9h2v2h-2zm-6.778 3.636 1.414-1.414 1.414 1.414-1.414 1.414zm1.414 14.142-1.414-1.414 1.414-1.414 1.414 1.414zm7.364 2.222h-2v-2h2zm-1-4a6 6 0 1 1 6-6 6.006 6.006 0 0 1 -6 6zm7.778.364-1.414 1.414-1.414-1.414 1.414-1.414zm-1.414-11.314-1.414-1.414 1.414-1.414 1.414 1.414z"/><path d="m25 17h20v1h-20z"/><path d="m46 50a1 1 0 0 0 -1 1v3.586l4.586-4.586z"/><circle cx="16" cy="48" r="4"/><path d="m51 56v-4.586l-4.586 4.586z"/><path d="m39.996 37.333h17v2h-17z" transform="matrix(.707 -.707 .707 .707 -12.901 45.519)"/><path d="m54.36 26.14h1v6.001h-1z" transform="matrix(.707 -.707 .707 .707 -4.537 47.327)"/><path d="m59.456 24.544a3 3 0 0 0 -4.243 0l-.707.707 4.243 4.243.707-.707a3.005 3.005 0 0 0 0-4.243z"/><path d="m18 12a3.009 3.009 0 0 0 -3 3v19h2v-18a2.006 2.006 0 0 1 2-2h4a4.941 4.941 0 0 1 .42-2zm35 26.07v17.93a2.006 2.006 0 0 1 -2 2h-25.2l-1.31 1.31a1.006 1.006 0 0 1 -1.31.1l-2.17-1.63a10.291 10.291 0 0 1 -1.64.68l-.22 1.54h32.85a3.009 3.009 0 0 0 3-3v-20.93zm-31.99.15 2.17-1.63a.994.994 0 0 1 1.31.1l2.82 2.82a.994.994 0 0 1 .1 1.31l-1.63 2.17a10.291 10.291 0 0 1 .68 1.64l2.68.38a1 1 0 0 1 .86.99v4a1 1 0 0 1 -.86.99l-2.68.38a10.291 10.291 0 0 1 -.68 1.64l1.63 2.17a.972.972 0 0 1 .17.82h15.42v-5a3.009 3.009 0 0 1 3-3h5v-7.93l-7.81 7.81a.975.975 0 0 1 -.51.27l-3.24.65-1.9 1.91a3.005 3.005 0 0 1 -4.25-4.25l1.91-1.9.65-3.24a.975.975 0 0 1 .27-.51l14.88-14.88v-9.93h-4v3a1 1 0 0 1 -1 1h-22a1 1 0 0 1 -1-1v-3h-4v18.93l.37 2.61a10.291 10.291 0 0 1 1.64.68zm17.99-12.22h4v2h-4zm-4 0h2v2h-2zm0 4h6v2h-6zm-1.29-4.29-5 5-1.42-1.42 5-5zm-5.71-1.71a4.817 4.817 0 0 1 1.25.16l-.5 1.93a3.142 3.142 0 0 0 -.75-.09 3 3 0 1 0 2.91 3.75l1.93.5a5 5 0 1 1 -4.84-6.25zm24-12h-5.42a4.941 4.941 0 0 1 .42 2h4a2.006 2.006 0 0 1 2 2v7.93l.8-.8a4.77 4.77 0 0 1 1.2-.87v-7.26a3.009 3.009 0 0 0 -3-3z"/><path d="m34.707 47.878a1 1 0 0 0 1.415 1.415l1.414-1.414-1.415-1.415z"/><path d="m37.167 34.504h17v2h-17z" transform="matrix(.707 -.707 .707 .707 -11.729 42.692)"/><path d="m41.635 46.321-3.956-3.956-.472 2.357 2.071 2.071z"/></g></svg>